<?xml version="1.0" encoding="UTF-8"?>
<svg xmlns="http://www.w3.org/2000/svg" height="100%" width="100%">
   <g transform="translate(20,300)">
      <line x1="200"
            y1="-200"
            x2="200"
            y2="0"
            stroke="black"
            stroke-width="2"/>
      <text x="200" y="20" text-anchor="middle">value</text>
      <line x1="400"
            y1="-200"
            x2="400"
            y2="0"
            stroke="black"
            stroke-width="2"/>
      <text x="400" y="20" text-anchor="middle">secure</text>
      <line x1="600"
            y1="-200"
            x2="600"
            y2="0"
            stroke="black"
            stroke-width="2"/>
      <text x="600" y="20" text-anchor="middle">econ</text>
      <text x="15" y="-100">Percent</text>
      <text x="400" y="60" text-anchor="middle">Trope Type</text>
      <line x1="200"
            y1="-11.5384615384615384"
            x2="400"
            y2="-13.3333333333333334"
            stroke="blue"
            stroke-width="2"/>
      <line x1="400"
            y1="-13.3333333333333334"
            x2="600"
            y2="-0"
            stroke="blue"
            stroke-width="2"/>
      <line x1="200"
            y1="-11.5384615384615384"
            x2="400"
            y2="-26.6666666666666666"
            stroke="blue"
            stroke-width="2"/>
      <line x1="400"
            y1="-26.6666666666666666"
            x2="600"
            y2="-0"
            stroke="blue"
            stroke-width="2"/>
      <line x1="200"
            y1="-3.8461538461538462"
            x2="400"
            y2="-0"
            stroke="red"
            stroke-width="2"/>
      <line x1="400"
            y1="-0"
            x2="600"
            y2="-0"
            stroke="red"
            stroke-width="2"/>
      <line x1="200"
            y1="-7.6923076923076924"
            x2="400"
            y2="-0"
            stroke="red"
            stroke-width="2"/>
      <line x1="400"
            y1="-0"
            x2="600"
            y2="-14.2857142857142858"
            stroke="red"
            stroke-width="2"/>
      <line x1="200"
            y1="-11.5384615384615384"
            x2="400"
            y2="-53.3333333333333334"
            stroke="red"
            stroke-width="2"/>
      <line x1="400"
            y1="-53.3333333333333334"
            x2="600"
            y2="-21.4285714285714286"
            stroke="red"
            stroke-width="2"/>
      <line x1="200"
            y1="-50"
            x2="400"
            y2="-13.3333333333333334"
            stroke="red"
            stroke-width="2"/>
      <line x1="400"
            y1="-13.3333333333333334"
            x2="600"
            y2="-28.5714285714285714"
            stroke="red"
            stroke-width="2"/>
      <line x1="200"
            y1="-3.8461538461538462"
            x2="400"
            y2="-0"
            stroke="red"
            stroke-width="2"/>
      <line x1="400"
            y1="-0"
            x2="600"
            y2="-14.2857142857142858"
            stroke="red"
            stroke-width="2"/>
      <line x1="200"
            y1="-7.6923076923076924"
            x2="400"
            y2="-0"
            stroke="red"
            stroke-width="2"/>
      <line x1="400"
            y1="-0"
            x2="600"
            y2="-14.2857142857142858"
            stroke="red"
            stroke-width="2"/>
      <line x1="200"
            y1="-0"
            x2="400"
            y2="-13.3333333333333334"
            stroke="red"
            stroke-width="2"/>
      <line x1="400"
            y1="-13.3333333333333334"
            x2="600"
            y2="-21.4285714285714286"
            stroke="red"
            stroke-width="2"/>
      <line x1="200"
            y1="-26.923076923076923"
            x2="400"
            y2="-26.6666666666666666"
            stroke="red"
            stroke-width="2"/>
      <line x1="400"
            y1="-26.6666666666666666"
            x2="600"
            y2="-35.7142857142857142"
            stroke="red"
            stroke-width="2"/>
      <line x1="200"
            y1="-53.8461538461538462"
            x2="400"
            y2="-26.6666666666666666"
            stroke="red"
            stroke-width="2"/>
      <line x1="400"
            y1="-26.6666666666666666"
            x2="600"
            y2="-57.1428571428571428"
            stroke="red"
            stroke-width="2"/>
      <text x="165" y="-200">100</text>
      <text x="165" y="-0">0</text>
      <text x="165" y="-50">25</text>
      <text x="165" y="-100">50</text>
      <text x="165" y="-150">75</text>
   </g>
</svg>
