<?xml version="1.0" encoding="UTF-8"?>
<svg xmlns="http://www.w3.org/2000/svg" height="100%" width="100%">
   <g transform="translate(40,500)">
      <line x1="200"
            y1="-400"
            x2="200"
            y2="0"
            stroke="black"
            stroke-width="2"/>
      <text x="200" y="20" text-anchor="middle">econ</text>
      <line x1="400"
            y1="-400"
            x2="400"
            y2="0"
            stroke="black"
            stroke-width="2"/>
      <text x="400" y="20" text-anchor="middle">value</text>
      <line x1="600"
            y1="-400"
            x2="600"
            y2="0"
            stroke="black"
            stroke-width="2"/>
      <text x="600" y="20" text-anchor="middle">secure</text>
      <text x="15" y="-100">Percent</text>
      <text x="400" y="60" text-anchor="middle">Trope Type</text>
      <line x1="200"
            y1="-22.641509433962264"
            x2="400"
            y2="-23.5294117647058824"
            stroke="blue"
            stroke-width="2"/>
      <line x1="400"
            y1="-23.5294117647058824"
            x2="600"
            y2="-0"
            stroke="blue"
            stroke-width="2"/>
      <line x1="200"
            y1="-22.641509433962264"
            x2="400"
            y2="-47.0588235294117648"
            stroke="blue"
            stroke-width="2"/>
      <line x1="400"
            y1="-47.0588235294117648"
            x2="600"
            y2="-0"
            stroke="blue"
            stroke-width="2"/>
      <line x1="200"
            y1="-7.5471698113207548"
            x2="400"
            y2="-0"
            stroke="red"
            stroke-width="2"/>
      <line x1="400"
            y1="-0"
            x2="600"
            y2="-0"
            stroke="red"
            stroke-width="2"/>
      <line x1="200"
            y1="-15.0943396226415096"
            x2="400"
            y2="-0"
            stroke="red"
            stroke-width="2"/>
      <line x1="400"
            y1="-0"
            x2="600"
            y2="-27.586206896551724"
            stroke="red"
            stroke-width="2"/>
      <line x1="200"
            y1="-22.641509433962264"
            x2="400"
            y2="-117.6470588235294116"
            stroke="red"
            stroke-width="2"/>
      <line x1="400"
            y1="-117.6470588235294116"
            x2="600"
            y2="-41.3793103448275864"
            stroke="red"
            stroke-width="2"/>
      <line x1="200"
            y1="-98.1132075471698112"
            x2="400"
            y2="-23.5294117647058824"
            stroke="red"
            stroke-width="2"/>
      <line x1="400"
            y1="-23.5294117647058824"
            x2="600"
            y2="-55.1724137931034484"
            stroke="red"
            stroke-width="2"/>
      <line x1="200"
            y1="-15.0943396226415096"
            x2="400"
            y2="-23.5294117647058824"
            stroke="red"
            stroke-width="2"/>
      <line x1="400"
            y1="-23.5294117647058824"
            x2="600"
            y2="-27.586206896551724"
            stroke="red"
            stroke-width="2"/>
      <line x1="200"
            y1="-15.0943396226415096"
            x2="400"
            y2="-0"
            stroke="red"
            stroke-width="2"/>
      <line x1="400"
            y1="-0"
            x2="600"
            y2="-27.586206896551724"
            stroke="red"
            stroke-width="2"/>
      <line x1="200"
            y1="-0"
            x2="400"
            y2="-23.5294117647058824"
            stroke="red"
            stroke-width="2"/>
      <line x1="400"
            y1="-23.5294117647058824"
            x2="600"
            y2="-41.3793103448275864"
            stroke="red"
            stroke-width="2"/>
      <line x1="200"
            y1="-52.8301886792452832"
            x2="400"
            y2="-47.0588235294117648"
            stroke="red"
            stroke-width="2"/>
      <line x1="400"
            y1="-47.0588235294117648"
            x2="600"
            y2="-68.9655172413793104"
            stroke="red"
            stroke-width="2"/>
      <line x1="200"
            y1="-105.660377358490566"
            x2="400"
            y2="-47.0588235294117648"
            stroke="red"
            stroke-width="2"/>
      <line x1="400"
            y1="-47.0588235294117648"
            x2="600"
            y2="-124.1379310344827588"
            stroke="red"
            stroke-width="2"/>
      <line x1="200"
            y1="-30.1886792452830188"
            x2="400"
            y2="-47.0588235294117648"
            stroke="blue"
            stroke-width="2"/>
      <line x1="400"
            y1="-47.0588235294117648"
            x2="600"
            y2="-13.793103448275862"
            stroke="blue"
            stroke-width="2"/>
      <text x="165" y="-400">100</text>
      <text x="165" y="-0">0</text>
      <text x="165" y="-100">25</text>
      <text x="165" y="-200">50</text>
      <text x="165" y="-300">75</text>
   </g>
</svg>
