<svg xmlns="http://www.w3.org/2000/svg"
     width="700"
     height="500"
     viewBox="-100 -100 200 200">
   <g transform="translate(-40, 0)">
      <circle r="100"
              cx="0"
              cy="0"
              stroke="gray"
              stroke-width="0.2"
              fill-opacity="0"/>
      <circle r="0.9259259259259259"
              cx="0"
              cy="0"
              stroke="gray"
              stroke-width="0.2"
              fill-opacity="0"/>
      <line x1="0"
            y1="0"
            x2="50.000000000000014"
            y2="86.60254037844386"
            stroke-width="0.2"
            stroke="gray"/>
      <text x="51.000000000000014" y="89.60254037844386" font-size="10">immigration</text>
      <line x1="0"
            y1="0"
            x2="-49.99999999999998"
            y2="86.60254037844388"
            stroke-width="0.2"
            stroke="gray"/>
      <text x="-48.99999999999998" y="89.60254037844388" font-size="10">border</text>
      <line x1="0"
            y1="0"
            x2="-100"
            y2="1.2246467991473532E-14"
            stroke-width="0.2"
            stroke="gray"/>
      <text x="-99" y="3.0000000000000124" font-size="10">pathway_to_citizenship</text>
      <line x1="0"
            y1="0"
            x2="-50.00000000000004"
            y2="-86.60254037844385"
            stroke-width="0.2"
            stroke="gray"/>
      <text x="-49.00000000000004" y="-83.60254037844385" font-size="10">wall</text>
      <line x1="0"
            y1="0"
            x2="50.000000000000014"
            y2="-86.60254037844386"
            stroke-width="0.2"
            stroke="gray"/>
      <text x="51.000000000000014" y="-83.60254037844386" font-size="10">amnesty</text>
      <line x1="0"
            y1="0"
            x2="100"
            y2="-2.4492935982947064E-14"
            stroke-width="0.2"
            stroke="gray"/>
      <text x="101" y="2.9999999999999756" font-size="10">other</text>
      <path id="republican"
            d="M 13.425925925925931 23.254385842359927 L -49.99999999999998 86.60254037844388 L -14.814814814814813 1.814291554292375E-15 L -22.685185185185208 -39.29189331984953 L 37.50000000000001 -64.9519052838329 L 30.555555555555557 -7.483952661456048E-15 Z"
            stroke="red"
            stroke-width="0.2"
            fill="red"
            fill-opacity=".25"/>
      <g class="legend" id="republican_rect" transform="translate(100,-88)">
         <rect x="0" y="0" width="10" height="10" fill="red"/>
         <text x="12" y="8.5" font-size="10" fill="red">republican</text>
      </g>
      <path id="democrat"
            d="M 23.148148148148152 40.09376869372401 L -0.9259259259259254 1.6037507477489603 L -10.185185185185185 1.247325443576008E-15 L -5.092592592592597 -8.820629112619281 L 0.462962962962963 -0.80187537387448 L 1.8518518518518516 -4.535728885730938E-16 Z"
            stroke="blue"
            stroke-width="0.2"
            fill="blue"
            fill-opacity=".25"/>
      <g class="legend" id="democrat_rect" transform="translate(100,-76)">
         <rect x="0" y="0" width="10" height="10" fill="blue"/>
         <text x="12" y="8.5" font-size="10" fill="blue">democrat</text>
      </g>
   </g>
</svg>
